<mxfile host="app.diagrams.net" modified="2024-11-22T07:44:15.296Z" agent="Mozilla/5.0 (Windows NT 10.0; Win64; x64) AppleWebKit/537.36 (KHTML, like Gecko) Chrome/131.0.0.0 Safari/537.36" version="24.5.5" etag="-p_B_n3zyMoD9bWSCNBH" type="github">
  <diagram name="Страница — 1" id="VvBKTLb3dEkAcTQEfcWd">
    <mxGraphModel>
      <root>
        <mxCell id="0" />
        <mxCell id="1" parent="0" />
      </root>
    </mxGraphModel>
  </diagram>
</mxfile>
